{"title":"Up.Pompeii.1971.DVDRiP.XviD-UNVEiL","uid":6178228,"size":736051817,"categoryP":"video","categoryS":"movies","magnet":"?xt=urn:btih:40d8f7a4aa8e4e6a916a2bd71a0e96b2132596f6&amp;dn=Up.Pompeii.1971.DVDRiP.XviD-UNVEiL&amp;tr=udp%3A%2F%2Ftracker.openbittorrent.com%3A80&amp;tr=udp%3A%2F%2Fopen.demonii.com%3A1337&amp;tr=udp%3A%2F%2Ftracker.coppersurfer.tk%3A6969&amp;tr=udp%3A%2F%2Fexodus.desync.com%3A6969","seeders":0,"leechers":35,"uploader":"sceneline","files":54,"time":1297851025,"description":"-\nwww.TorrentKit.com      thanks for supporting with server,\nwww.TorrentKit.com      where speed speaks hot tracker\ndon't forget to to visit torrentkit.com ,   Who love to share please seed for a better speed,\n-Up.Pompeii.1971.DVDRiP.XviD-UNVEiL\n\nRelease 16/02/2011\nRetail 14/02/2011 (uk) &lt;a href=&quot;\nhttp://www.imdb.com/title/tt0067916/&quot; rel=&quot;nofollow&quot; target=&quot;_NEW&quot;&gt;\nhttp://www.imdb.com/title/tt0067916/&lt;/a&gt;\n\nenglish, mono\n\nVideo\nID                               : 0\nFormat                           : MPEG-4 Visual\nFormat profile                   : Advanced Simple@L5\nFormat settings, BVOP            : 2\nFormat settings, QPel            : No\nFormat settings, GMC             : No warppoints\nFormat settings, Matrix          : Default (H.263)\nCodec ID                         : XVID\nCodec ID/Hint                    : XviD\nDuration                         : 1h 26mn\nBit rate                         : 981 Kbps\nWidth                            : 624 pixels\nHeight                           : 352 pixels\nDisplay aspect ratio             : 16:9\nFrame rate                       : 25.000 fps\nColor space                      : YUV\nChroma subsampling               : 4:2:0\nBit depth                        : 8 bits\nScan type                        : Progressive\nCompression mode                 : Lossy\nBits/(Pixel*Frame)               : 0.179\nStream size                      : 608 MiB (87%)\nWriting library                  : XviD 1.2.1 (UTC 2008-12-04)\n\nAudio\nID                               : 1\nFormat                           : MPEG Audio\nFormat version                   : Version 1\nFormat profile                   : Layer 3\nCodec ID                         : 55\nCodec ID/Hint                    : MP3\nDuration                         : 1h 26mn\nBit rate mode                    : Variable\nBit rate                         : 127 Kbps\nNominal bit rate                 : 144 Kbps\nChannel(s)                       : 1 channel\nSampling rate                    : 48.0 KHz\nCompression mode                 : Lossy\nStream size                      : 79.0 MiB (11%)\nAlignment                        : Aligned on interleaves\nInterleave, duration             : 24 ms (0.60 video frame)\nInterleave, preload duration     : 563 ms\nWriting library                  : LAME3.98 \nEncoding settings                : -m m -V 4 -q 3 -lowpass 20.5 --abr 144","torrent":{"xt":"urn:btih:40d8f7a4aa8e4e6a916a2bd71a0e96b2132596f6","amp;dn":"Up.Pompeii.1971.DVDRiP.XviD-UNVEiL","amp;tr":["udp%3A%2F%2Ftracker.openbittorrent.com%3A80","udp%3A%2F%2Fopen.demonii.com%3A1337","udp%3A%2F%2Ftracker.coppersurfer.tk%3A6969","udp%3A%2F%2Fexodus.desync.com%3A6969"],"infoHash":"40d8f7a4aa8e4e6a916a2bd71a0e96b2132596f6","infoHashBuffer":{"type":"Buffer","data":[64,216,247,164,170,142,78,106,145,106,43,215,26,14,150,178,19,37,150,246]},"announce":[],"urlList":[]}}